{
    "asset" : {
        "generator" : "Khronos glTF Blender I/O v3.4.50",
        "version" : "2.0"
    },
    "extensionsUsed" : [
        "KHR_materials_specular",
        "KHR_materials_ior"
    ],
    "scene" : 0,
    "scenes" : [
        {
            "name" : "Scene",
            "nodes" : [
                0,
                1
            ]
        }
    ],
    "nodes" : [
        {
            "mesh" : 0,
            "name" : "Plane",
            "rotation" : [
                0.4894384443759918,
                0,
                0,
                0.8720378279685974
            ],
            "translation" : [
                0.012128297239542007,
                1.5333012342453003,
                2.0920886993408203
            ]
        },
        {
            "mesh" : 1,
            "name" : "body glock"
        }
    ],
    "materials" : [
        {
            "doubleSided" : true,
            "name" : "metall body",
            "pbrMetallicRoughness" : {
                "baseColorFactor" : [
                    0.004529840778559446,
                    0.004529840778559446,
                    0.004529840778559446,
                    1
                ]
            }
        },
        {
            "doubleSided" : true,
            "name" : "metall 1",
            "pbrMetallicRoughness" : {
                "baseColorFactor" : [
                    0,
                    0,
                    0,
                    1
                ],
                "metallicFactor" : 0
            }
        },
        {
            "doubleSided" : true,
            "name" : "black",
            "pbrMetallicRoughness" : {
                "baseColorFactor" : [
                    0,
                    0,
                    0,
                    1
                ],
                "metallicFactor" : 0.7054545283317566,
                "roughnessFactor" : 0.5
            }
        },
        {
            "doubleSided" : true,
            "extensions" : {
                "KHR_materials_specular" : {
                    "specularColorFactor" : [
                        0.444090608309367,
                        0.444090608309367,
                        0.444090608309367
                    ]
                },
                "KHR_materials_ior" : {
                    "ior" : 1.4500000476837158
                }
            },
            "name" : "METAL black",
            "pbrMetallicRoughness" : {
                "baseColorFactor" : [
                    0.04252840206027031,
                    0.04211976006627083,
                    0.04090889170765877,
                    1
                ]
            }
        },
        {
            "doubleSided" : true,
            "extensions" : {
                "KHR_materials_specular" : {
                    "specularColorFactor" : [
                        0.431155942747884,
                        0.431155942747884,
                        0.431155942747884
                    ]
                },
                "KHR_materials_ior" : {
                    "ior" : 1.4500000476837158
                }
            },
            "name" : "gum",
            "pbrMetallicRoughness" : {
                "baseColorFactor" : [
                    0,
                    0,
                    0,
                    1
                ],
                "metallicFactor" : 0,
                "roughnessFactor" : 0.7981818318367004
            }
        }
    ],
    "meshes" : [
        {
            "name" : "Plane",
            "primitives" : [
                {
                    "attributes" : {
                        "POSITION" : 0,
                        "TEXCOORD_0" : 1,
                        "NORMAL" : 2
                    },
                    "indices" : 3
                }
            ]
        },
        {
            "name" : "Plane.001",
            "primitives" : [
                {
                    "attributes" : {
                        "POSITION" : 4,
                        "TEXCOORD_0" : 5,
                        "NORMAL" : 6
                    },
                    "indices" : 7,
                    "material" : 0
                },
                {
                    "attributes" : {
                        "POSITION" : 8,
                        "TEXCOORD_0" : 9,
                        "NORMAL" : 10
                    },
                    "indices" : 11,
                    "material" : 1
                },
                {
                    "attributes" : {
                        "POSITION" : 12,
                        "TEXCOORD_0" : 13,
                        "NORMAL" : 14
                    },
                    "indices" : 15,
                    "material" : 2
                },
                {
                    "attributes" : {
                        "POSITION" : 16,
                        "TEXCOORD_0" : 17,
                        "NORMAL" : 18
                    },
                    "indices" : 19,
                    "material" : 3
                },
                {
                    "attributes" : {
                        "POSITION" : 20,
                        "TEXCOORD_0" : 21,
                        "NORMAL" : 22
                    },
                    "indices" : 23,
                    "material" : 4
                }
            ]
        }
    ],
    "accessors" : [
        {
            "bufferView" : 0,
            "componentType" : 5126,
            "count" : 48,
            "max" : [
                0.4867441654205322,
                3.0601654543715995e-10,
                0.4867441654205322
            ],
            "min" : [
                -0.4867441654205322,
                -0.030316447839140892,
                -0.4867441654205322
            ],
            "type" : "VEC3"
        },
        {
            "bufferView" : 1,
            "componentType" : 5126,
            "count" : 48,
            "type" : "VEC2"
        },
        {
            "bufferView" : 2,
            "componentType" : 5126,
            "count" : 48,
            "type" : "VEC3"
        },
        {
            "bufferView" : 3,
            "componentType" : 5123,
            "count" : 72,
            "type" : "SCALAR"
        },
        {
            "bufferView" : 4,
            "componentType" : 5126,
            "count" : 8388,
            "max" : [
                0.3707340955734253,
                1.5485284328460693,
                2.4379985332489014
            ],
            "min" : [
                -0.377575546503067,
                -1.4445388317108154,
                -2.3770594596862793
            ],
            "type" : "VEC3"
        },
        {
            "bufferView" : 5,
            "componentType" : 5126,
            "count" : 8388,
            "type" : "VEC2"
        },
        {
            "bufferView" : 6,
            "componentType" : 5126,
            "count" : 8388,
            "type" : "VEC3"
        },
        {
            "bufferView" : 7,
            "componentType" : 5123,
            "count" : 36468,
            "type" : "SCALAR"
        },
        {
            "bufferView" : 8,
            "componentType" : 5126,
            "count" : 2729,
            "max" : [
                0.28188595175743103,
                1.5303020477294922,
                2.1637933254241943
            ],
            "min" : [
                -0.30294784903526306,
                -1.6594533920288086,
                -2.446110725402832
            ],
            "type" : "VEC3"
        },
        {
            "bufferView" : 9,
            "componentType" : 5126,
            "count" : 2729,
            "type" : "VEC2"
        },
        {
            "bufferView" : 10,
            "componentType" : 5126,
            "count" : 2729,
            "type" : "VEC3"
        },
        {
            "bufferView" : 11,
            "componentType" : 5123,
            "count" : 9360,
            "type" : "SCALAR"
        },
        {
            "bufferView" : 12,
            "componentType" : 5126,
            "count" : 816,
            "max" : [
                0.35076549649238586,
                1.6552972793579102,
                1.8109716176986694
            ],
            "min" : [
                -0.3503161370754242,
                0.35761919617652893,
                0.04323390871286392
            ],
            "type" : "VEC3"
        },
        {
            "bufferView" : 13,
            "componentType" : 5126,
            "count" : 816,
            "type" : "VEC2"
        },
        {
            "bufferView" : 14,
            "componentType" : 5126,
            "count" : 816,
            "type" : "VEC3"
        },
        {
            "bufferView" : 15,
            "componentType" : 5123,
            "count" : 2688,
            "type" : "SCALAR"
        },
        {
            "bufferView" : 16,
            "componentType" : 5126,
            "count" : 99,
            "max" : [
                0.10060472041368484,
                1.620283603668213,
                0.8822525143623352
            ],
            "min" : [
                -0.3641599416732788,
                0.8548746109008789,
                -2.2942769527435303
            ],
            "type" : "VEC3"
        },
        {
            "bufferView" : 17,
            "componentType" : 5126,
            "count" : 99,
            "type" : "VEC2"
        },
        {
            "bufferView" : 18,
            "componentType" : 5126,
            "count" : 99,
            "type" : "VEC3"
        },
        {
            "bufferView" : 19,
            "componentType" : 5123,
            "count" : 363,
            "type" : "SCALAR"
        },
        {
            "bufferView" : 20,
            "componentType" : 5126,
            "count" : 159,
            "max" : [
                -0.3034597337245941,
                0.3258538544178009,
                0.7537633180618286
            ],
            "min" : [
                -0.3223271667957306,
                0.07589743286371231,
                0.546614408493042
            ],
            "type" : "VEC3"
        },
        {
            "bufferView" : 21,
            "componentType" : 5126,
            "count" : 159,
            "type" : "VEC2"
        },
        {
            "bufferView" : 22,
            "componentType" : 5126,
            "count" : 159,
            "type" : "VEC3"
        },
        {
            "bufferView" : 23,
            "componentType" : 5123,
            "count" : 207,
            "type" : "SCALAR"
        }
    ],
    "bufferViews" : [
        {
            "buffer" : 0,
            "byteLength" : 576,
            "byteOffset" : 0,
            "target" : 34962
        },
        {
            "buffer" : 0,
            "byteLength" : 384,
            "byteOffset" : 576,
            "target" : 34962
        },
        {
            "buffer" : 0,
            "byteLength" : 576,
            "byteOffset" : 960,
            "target" : 34962
        },
        {
            "buffer" : 0,
            "byteLength" : 144,
            "byteOffset" : 1536,
            "target" : 34963
        },
        {
            "buffer" : 0,
            "byteLength" : 100656,
            "byteOffset" : 1680,
            "target" : 34962
        },
        {
            "buffer" : 0,
            "byteLength" : 67104,
            "byteOffset" : 102336,
            "target" : 34962
        },
        {
            "buffer" : 0,
            "byteLength" : 100656,
            "byteOffset" : 169440,
            "target" : 34962
        },
        {
            "buffer" : 0,
            "byteLength" : 72936,
            "byteOffset" : 270096,
            "target" : 34963
        },
        {
            "buffer" : 0,
            "byteLength" : 32748,
            "byteOffset" : 343032,
            "target" : 34962
        },
        {
            "buffer" : 0,
            "byteLength" : 21832,
            "byteOffset" : 375780,
            "target" : 34962
        },
        {
            "buffer" : 0,
            "byteLength" : 32748,
            "byteOffset" : 397612,
            "target" : 34962
        },
        {
            "buffer" : 0,
            "byteLength" : 18720,
            "byteOffset" : 430360,
            "target" : 34963
        },
        {
            "buffer" : 0,
            "byteLength" : 9792,
            "byteOffset" : 449080,
            "target" : 34962
        },
        {
            "buffer" : 0,
            "byteLength" : 6528,
            "byteOffset" : 458872,
            "target" : 34962
        },
        {
            "buffer" : 0,
            "byteLength" : 9792,
            "byteOffset" : 465400,
            "target" : 34962
        },
        {
            "buffer" : 0,
            "byteLength" : 5376,
            "byteOffset" : 475192,
            "target" : 34963
        },
        {
            "buffer" : 0,
            "byteLength" : 1188,
            "byteOffset" : 480568,
            "target" : 34962
        },
        {
            "buffer" : 0,
            "byteLength" : 792,
            "byteOffset" : 481756,
            "target" : 34962
        },
        {
            "buffer" : 0,
            "byteLength" : 1188,
            "byteOffset" : 482548,
            "target" : 34962
        },
        {
            "buffer" : 0,
            "byteLength" : 726,
            "byteOffset" : 483736,
            "target" : 34963
        },
        {
            "buffer" : 0,
            "byteLength" : 1908,
            "byteOffset" : 484464,
            "target" : 34962
        },
        {
            "buffer" : 0,
            "byteLength" : 1272,
            "byteOffset" : 486372,
            "target" : 34962
        },
        {
            "buffer" : 0,
            "byteLength" : 1908,
            "byteOffset" : 487644,
            "target" : 34962
        },
        {
            "buffer" : 0,
            "byteLength" : 414,
            "byteOffset" : 489552,
            "target" : 34963
        }
    ],
    "buffers" : [
        {
            "byteLength" : 489968,
            "uri" : "data:application/octet-stream;base64,"
        }
    ]
}
